<svg viewBox="0 0 1000 1000" fill="none" xmlns="http://www.w3.org/2000/svg">
<rect width="1000" height="1000" fill="#005EB8"/>
<path d="M528.719 427.512L424.97 317.917H218.944L332.785 427.512H528.719Z" fill="#FFFFFF"/>
<path d="M332.786 572.312L218.944 681.907H424.97L528.72 572.312H332.786Z" fill="#FFFFFF"/>
<path d="M576.974 317.916L512.712 384.625L553.309 427.51H669.159L783 317.916H576.974Z" fill="#FFFFFF"/>
<path d="M669.159 572.312H553.31L512.712 615.198L576.974 681.907H783L669.159 572.312Z" fill="#FFFFFF"/>
<path d="M280.562 490.56H245.221V448.006H221.123V551.816H245.221V512.456H280.562V551.816H304.809V448.006H280.562V490.56Z" fill="#FFFFFF"/>
<path d="M349.975 512.456L361.027 477.353L372.079 512.456H349.975ZM347.765 448.006L312.666 551.816H337.584L343.523 532.953H378.532L384.471 551.816H409.389L374.325 448.006H347.765Z" fill="#FFFFFF"/>
<path d="M441.49 448.006H417.244V551.816H479.104V529.919H441.49V448.006Z" fill="#FFFFFF"/>
<path d="M490.354 551.816H514.891V448.006H490.354V551.816Z" fill="#FFFFFF"/>
<path d="M552.966 469.903H598.643V448.006H528.723V551.816H552.966V512.456H590.814V490.56H552.966V469.903Z" fill="#FFFFFF"/>
<path d="M628.539 512.456L639.591 477.353L650.643 512.456H628.539ZM778.201 448.006H750.695L731.156 479.37L711.616 448.006H684.111L717.968 499.911L686.641 547.936L652.889 448.006H626.327L591.229 551.816H616.147L622.086 532.953H657.096L663.034 551.816H711.616L731.156 520.453L750.695 551.816H778.201L744.344 499.911L778.201 448.006Z" fill="#FFFFFF"/>
</svg>
