<svg viewBox="0 0 1000 1000" fill="none" xmlns="http://www.w3.org/2000/svg">
<rect width="1000" height="1000" fill="#102766"/>
<path d="M720.41 322.906L500.5 455.621L280.59 322.906V413.355L425.223 500.423L280.59 587.49V677.939L500.5 545.224L720.41 677.939V587.49L575.777 500.423L720.41 413.355V322.906ZM500.5 596.789C473.434 596.789 451.443 618.767 451.443 644.972C451.443 672.022 473.434 694 499.654 694C525.874 694 548.711 672.022 548.711 645.817C548.711 618.767 527.566 596.789 500.5 596.789C500.5 595.943 500.5 595.943 500.5 596.789ZM783 500.423C783 527.473 761.009 548.606 733.943 548.606C706.877 548.606 685.732 526.627 685.732 499.577C685.732 472.527 707.723 451.394 733.943 451.394C761.855 451.394 783 473.373 783 500.423ZM500.5 306C473.434 306 451.443 327.978 451.443 354.183C451.443 381.233 473.434 403.211 499.654 403.211C525.874 403.211 548.711 381.233 548.711 355.028C548.711 327.978 527.566 306 500.5 306ZM315.268 500.423C315.268 527.473 293.277 548.606 266.211 548.606C239.145 547.76 218 525.782 218 499.577C218 472.527 239.991 451.394 266.211 451.394C293.277 451.394 315.268 473.373 315.268 500.423Z" fill="#FFFFFF"/>
</svg>
