<svg viewBox="0 0 1000 1000" fill="none" xmlns="http://www.w3.org/2000/svg">
<rect width="1000" height="1000" fill="#11B67A"/>
<path d="M366.395 752.617L355.719 745.15C351.194 691.339 334.366 658.723 325.447 641.921C334.959 635.64 350.754 621.166 350.754 600.388C350.754 579.611 333.795 568.65 333.795 542.931C333.795 528.743 338.628 516.904 346.514 507.701C341.396 500.387 335.398 496.434 326.479 496.434C316.528 496.434 307.609 504.626 307.609 517.19C307.609 524.504 310.816 532.543 317.692 536.056C312.727 542.931 299.986 543.655 292.978 533.267H292.824C292.824 557.822 318.856 574.932 318.856 601.113C318.856 618.068 305.412 634.454 285.948 634.454C271.471 634.454 257.873 627.733 250.843 614.269C266.638 618.354 278.04 612.073 278.04 598.038C278.04 572.604 235.619 547.587 235.619 504.319C235.619 470.254 261.805 451.387 291.638 451.387C318.834 451.387 343.109 463.971 361.408 495.555C370.768 488.528 382.169 484.596 393.724 482.245C424.875 476.096 463.055 481.653 492.295 469.222C505.323 463.664 516.13 453.868 516.13 442.601C516.13 437.198 513.056 433.97 508.662 433.97C506.465 433.97 503.104 435.002 501.193 439.812C495.481 434.848 493.724 429.577 493.724 424.305C493.724 415.542 496.491 411.435 499.567 407.196C496.645 399.596 487.573 397.84 481.421 405.285C473.82 391.25 478.5 371.944 498.249 366.103V365.948C475.139 362.149 469.01 347.828 471.624 331.883C473.82 333.793 476.302 334.958 478.785 334.958C482.586 334.958 484.936 331.883 484.936 327.49C484.936 322.812 482.608 315.498 470.612 307.459C481.136 291.667 499.281 289.317 508.487 295.181L508.64 295.028C503.961 288.592 501.61 277.325 509.079 266.211C510.836 268.693 515.076 272.361 521.667 272.361C540.977 272.361 541.702 251.166 556.464 249.124C555.585 255.713 557.344 264.916 565.537 264.916C576.214 264.916 581.179 248.838 583.815 238.889C588.495 241.524 591.856 246.049 591.131 254.527H591.284L597.72 241.524C603.125 246.049 604.157 253.67 602.4 260.523C601.961 262.28 601.368 263.598 601.368 264.608C601.368 269.726 616.723 273.525 616.723 284.924C616.723 286.835 616.13 288.878 615.251 291.206L650.357 335.507C652.554 338.274 653.279 341.217 653.279 343.699C653.279 352.902 645.238 362.698 633.683 362.698C622.128 362.698 618.173 356.416 617.602 353.495L587.045 338.582C585.287 341.503 583.244 346.335 583.244 351.738C583.244 385.364 630.783 386.242 642.339 430.257L689.439 414.62C723.072 447.367 758.616 479.105 780.562 492.107L794.447 509.81H752.333V497.532L740.778 494.325C723.072 466.542 699.104 451.343 686.231 447.543C670.589 457.054 658.88 466.981 645.128 482.333C667.513 480.577 692.513 482.773 713.427 486.726L702.465 580.753L693.547 604.869L669.864 625.053V583.52H682.585L679.069 570.364C689.461 542.865 690.778 524.46 690.778 514.51C690.778 511.435 690.624 508.514 689.614 507.482C688.735 506.603 685.088 507.482 681.86 508.36C673.38 510.71 659.474 517.278 641.636 531.752C625.555 544.908 616.767 550.904 594.975 548.422C570.414 573.856 518.35 586.155 472.7 585.563C469.185 622.549 428.236 643.898 428.236 661.447C428.236 667.728 434.233 677.963 447.393 697.709C462.023 719.65 475.907 740.692 493.174 747.434L507.805 765.269H465.538L465.253 752.553L453.258 745.963C439.506 720.529 418.021 692.437 388.474 666.125C395.635 651.805 399.436 637.177 399.59 623.274C386.277 643.305 366.835 643.458 363.32 658.657C362.002 664.368 362.727 675.482 365.803 689.802C370.328 711.436 374.436 737.177 394.471 747.127L408.355 765.269H366.373V752.553L366.395 752.617Z" fill="#000000"/>
<path d="M293.545 463.247C302.31 463.247 314.744 465.29 323.378 473.329C302.903 463.971 272.477 470.121 270.281 494.831C266.766 491.031 265.601 486.352 265.316 482.245C257.715 485.76 252.003 496.28 250.553 507.547C244.556 480.642 266.348 463.247 293.545 463.247ZM406.9 492.502C435.283 488.988 473.882 492.217 505.472 476.557C520.234 469.242 535.151 456.966 535.151 440.295C535.151 420.265 510.437 400.519 510.437 357.975C510.437 330.191 522.717 298.168 555.186 280.773C534.558 298.607 524.761 319.078 524.761 343.94C524.761 368.803 534.558 395.269 567.621 408.272C591.016 417.475 612.808 417.782 622.168 437.22C613.842 430.631 603.297 428.456 595.849 428.456C548.311 428.456 530.318 517.366 474.607 542.646C486.448 511.786 450.772 501.858 417.862 502.583C390.951 503.177 349.849 510.491 349.41 553.034C341.809 524.526 358.176 498.498 406.878 492.502H406.9ZM626.868 348.333C626.868 345.851 628.341 341.612 628.341 337.944C628.341 336.034 627.901 333.705 625.573 330.059C622.212 324.942 615.775 316.025 609.624 309.436C601.429 300.804 594.267 298.322 583.152 299.047C592.225 294.083 594.267 289.405 594.267 284.133C594.267 279.609 591.785 274.777 587.678 270.252C593.52 271.285 609.184 277.72 609.184 286.198C609.184 287.955 608.305 289.558 606.548 291.316L644.136 338.406C642.817 340.448 639.896 339.57 637.414 339.57C635.81 339.57 634.778 340.602 634.778 342.359C634.778 345.566 637.259 349.519 638.731 351.716C637.567 352.44 635.37 353.319 633.019 353.319C630.098 353.319 626.868 352.287 626.868 348.355V348.333Z" fill="#027559"/>
</svg>
