<svg viewBox="0 0 1024 1024" fill="none" xmlns="http://www.w3.org/2000/svg">
<path d="M742.238 610.952C706.634 574.251 642.261 575.094 577.72 607.07C570.802 637.78 545.829 756.823 408.901 841.528C409.07 869.116 417.337 893.414 434.548 911.132C485.675 963.778 595.944 939.227 680.903 856.293C765.861 773.36 793.364 663.512 742.321 610.952H742.238Z" fill="#91F187"/>
<path d="M440.161 764.034C529.744 740.485 568.634 657.842 577.72 607.072C570.802 637.782 545.829 756.825 408.901 841.53C413.071 808.544 427.655 779.376 440.161 764.034Z" fill="#67B55E"/>
<path d="M814.869 274.811C846.365 160.776 812.878 52.0307 740.073 31.9223C667.268 11.8138 582.716 87.9567 551.22 201.992C519.723 316.028 553.21 424.772 626.015 444.881C698.82 464.989 783.373 388.847 814.869 274.811Z" fill="#91F187"/>
<path d="M814.853 77.1606L873.826 90.4908C858.218 65.0961 836.704 47.0413 810.381 39.7857L759.422 25.865C782.371 35.1455 801.101 53.2001 814.853 77.1606Z" fill="black"/>
<path d="M886.357 115.294L826.456 101.795C828.565 107.448 830.505 113.269 832.277 119.259L892.6 132.843C890.744 126.768 888.719 120.947 886.441 115.294H886.357Z" fill="black"/>
<path d="M840.65 168.37C843.181 202.792 839.722 240.589 829.092 278.976C795.851 399.285 706.168 479.434 628.718 458.258L689.969 475.722C767.504 497.152 857.355 416.918 890.596 296.44C901.564 256.619 905.023 217.472 901.901 182.037L840.735 168.285L840.65 168.37Z" fill="black"/>
<path d="M578.121 210.047C605.962 109.143 679.362 40.7205 744.409 53.2069C741.541 52.0258 738.588 50.9291 735.551 50.0854C669.069 31.6932 591.788 101.297 563.019 205.491C534.249 309.685 564.791 409.071 631.358 427.379C633.467 427.97 635.575 428.475 637.685 428.813C577.446 404.346 550.786 309.348 578.289 209.962L578.121 210.047Z" fill="black"/>
<path d="M782.929 294.911C788.16 278.459 791.618 262.007 793.306 246.062C784.194 271.372 770.611 280.906 763.187 283.1C754.582 285.63 745.469 282.088 745.469 282.088C717.627 366.202 673.503 389.487 640.094 388.475C620.605 387.884 606.6 376.241 598.332 366.708C607.865 389.065 622.967 405.517 642.625 412.436C693.668 430.322 756.438 377.676 782.844 294.911H782.929Z" fill="white"/>
<path d="M782.014 685.615L824.958 725.69C824.788 696.245 815.845 670.261 797.454 651.278L761.597 614.578C776.192 633.728 782.689 658.28 782.014 685.615Z" fill="black"/>
<path d="M822.712 753.198L779.094 712.533C777.997 718.439 776.647 724.344 775.044 730.335L818.915 771.254C820.434 765.179 821.784 759.104 822.712 753.114V753.198Z" fill="black"/>
<path d="M757.009 776.73C741.571 807.61 719.214 838.488 690.529 866.413C600.846 953.903 484.165 979.382 429.663 923.615L472.353 968.414C526.77 1024.43 643.62 998.951 733.387 911.382C763.085 882.443 786.033 850.384 801.557 818.324L757.009 776.815V776.73Z" fill="black"/>
<path d="M657.221 832.753C700.756 790.316 726.066 739.527 728.765 697.259C704.046 774.877 649.376 769.309 649.376 769.309C629.802 814.53 589.474 855.617 542.819 875.359C507.215 890.461 475.746 885.821 459.126 879.999C500.044 920.833 588.377 899.91 657.221 832.838V832.753Z" fill="white"/>
<path d="M309.644 679.459C419.661 724.089 536.763 693.885 564.519 621.75C592.277 549.617 525.626 454.956 415.61 410.324C305.594 365.694 193.892 387.967 166.134 460.102C138.378 532.236 199.713 634.828 309.644 679.542V679.459Z" fill="#91F187"/>
<path d="M407.078 434.627C309.717 395.143 209.573 415.223 180.382 476.221C181.225 473.1 182.068 470.062 183.25 467.025C208.644 401.133 310.645 380.801 411.211 421.55C511.778 462.384 572.692 548.862 547.297 614.753C546.538 616.861 545.61 618.887 544.682 620.827C561.472 556.286 503.004 473.521 407.078 434.627Z" fill="black"/>
<path d="M406.567 447.789C324.73 414.632 242.133 426.781 212.942 473.942C225.007 461.962 247.448 446.101 283.981 442.136C344.725 435.555 401.505 459.347 415.173 509.546C415.173 509.546 463.094 478.498 507.893 523.551C486.126 493.263 450.607 465.59 406.567 447.705V447.789Z" fill="white"/>
<path d="M441.976 760.456C428.308 788.383 423.921 812.174 424.428 831.747C428.14 829.301 431.769 826.853 435.227 824.323C438.349 786.442 454.8 757.757 454.8 757.757L441.976 760.456Z" fill="black"/>
<path d="M435.255 824.318C431.712 826.849 428.083 829.296 424.456 831.743C425.468 875.108 450.104 897.55 450.104 897.55C436.268 872.577 433.399 846.845 435.255 824.318Z" fill="black"/>
<path d="M142.738 478.329L125.105 534.602C118.018 555.863 121.308 586.995 132.951 609.352L151.427 557.212C140.544 531.058 136.326 502.88 142.654 478.329H142.738Z" fill="black"/>
<path d="M144.657 636.521C147.778 641.921 151.238 647.236 154.95 652.466L175.704 596.784C171.908 591.637 168.449 586.491 165.243 581.26L144.657 636.606V636.521Z" fill="black"/>
<path d="M570.304 636.183L568.616 639.895C538.919 716.501 410.257 736.159 302.942 691.95C265.989 676.679 239.582 662.253 213.681 638.883L193.432 694.228C223.129 718.695 244.559 731.013 282.946 746.536C395.915 792.432 515.211 759.107 541.871 704.099C543.052 702.074 559.166 673.642 569.29 639.558L570.304 636.183Z" fill="black"/>
</svg>
