<svg viewBox="0 0 5000 1000" fill="none" xmlns="http://www.w3.org/2000/svg">
<g>
<path d="M4775.88 692C4750.15 692 4726.96 686.582 4706.3 675.747C4685.65 664.574 4669.56 648.998 4658.05 629.021C4645.86 608.366 4639.77 585.003 4639.77 558.931C4639.77 532.52 4645.86 509.157 4658.05 488.841C4669.56 469.202 4685.65 453.965 4706.3 443.13C4726.96 431.957 4750.15 426.37 4775.88 426.37C4801.62 426.37 4824.81 431.787 4845.47 442.622C4866.12 453.458 4882.37 468.694 4894.22 488.333C4906.08 508.988 4912 532.52 4912 558.931C4912 585.003 4905.91 608.366 4893.72 629.021C4882.2 648.659 4866.12 664.066 4845.47 675.239C4824.81 686.413 4801.62 692 4775.88 692ZM4714.43 550.297C4714.43 580.77 4720.02 604.811 4731.19 622.418C4742.7 640.025 4758.28 648.829 4777.92 648.829C4796.54 648.829 4811.1 641.718 4821.59 627.497C4832.43 612.937 4837.85 592.96 4837.85 567.565C4837.85 537.43 4832.09 513.559 4820.58 495.952C4809.07 478.344 4793.49 469.541 4773.85 469.541C4755.23 469.541 4740.67 476.821 4730.17 491.38C4719.68 505.602 4714.43 525.24 4714.43 550.297Z" fill="black"/>
<path d="M4496.51 684.365C4503.28 673.869 4507.52 666.42 4509.21 662.018C4510.23 658.632 4510.73 652.876 4510.73 644.749V374.548C4510.73 363.374 4510.06 355.248 4508.7 350.169C4506.67 341.704 4502.27 333.07 4495.5 324.266L4581.84 308.013V642.718C4581.84 648.474 4582.01 652.537 4582.35 654.907C4582.69 657.955 4583.87 661.51 4585.9 665.573C4587.26 668.62 4590.64 674.885 4596.06 684.365H4496.51Z" fill="black"/>
<path d="M4212.56 684.368C4217.98 673.194 4221.37 666.084 4222.72 663.036C4224.75 658.296 4226.11 654.571 4226.79 651.862C4227.12 649.831 4227.29 646.614 4227.29 642.212V370.995C4227.29 366.255 4227.12 362.869 4226.79 360.837C4226.11 358.128 4224.75 354.573 4222.72 350.171C4221.37 346.785 4217.98 339.675 4212.56 328.84H4456.36V402.485C4445.18 392.665 4435.7 385.555 4427.91 381.153C4421.14 377.09 4414.71 374.381 4408.61 373.027C4404.89 372.349 4399.3 372.011 4391.85 372.011H4301.45V481.209H4375.09C4381.53 481.209 4386.27 481.04 4389.31 480.701C4394.39 479.685 4399.81 477.823 4405.57 475.114C4411.32 472.405 4418.77 467.834 4427.91 461.401V544.696C4418.77 538.263 4411.32 533.692 4405.57 530.983C4399.81 528.274 4394.39 526.412 4389.31 525.396C4386.27 525.057 4381.36 524.888 4374.58 524.888H4301.45V642.212C4301.45 646.953 4301.62 650.339 4301.95 652.37C4302.63 655.079 4304.16 658.634 4306.53 663.036C4308.22 666.422 4312.28 673.533 4318.71 684.368H4212.56Z" fill="black"/>
<path d="M4060.04 684.352C4066.81 673.855 4071.04 666.406 4072.74 662.004C4073.75 658.618 4074.26 652.862 4074.26 644.736V533.506C4074.26 516.576 4069.86 503.71 4061.05 494.906C4052.59 485.764 4040.91 481.193 4026.01 481.193C4004 481.193 3987.75 490.166 3977.25 508.111V642.704C3977.25 648.46 3977.42 652.524 3977.76 654.894C3978.1 657.941 3979.28 661.496 3981.32 665.56C3982.67 668.607 3986.06 674.871 3991.47 684.352H3891.92C3898.7 673.855 3902.93 666.406 3904.62 662.004C3905.64 658.618 3906.15 652.862 3906.15 644.736V374.535C3906.15 363.361 3905.47 355.234 3904.11 350.155C3902.08 341.691 3897.68 333.056 3890.91 324.253L3977.25 308V471.035C3985.72 457.152 3997.06 446.317 4011.28 438.53C4025.5 430.403 4041.25 426.34 4058.52 426.34C4085.6 426.34 4106.93 434.805 4122.51 451.735C4137.41 467.988 4144.86 489.827 4144.86 517.254V643.212C4144.86 648.968 4145.03 653.031 4145.37 655.402C4145.7 658.449 4146.89 662.004 4148.92 666.068C4150.28 668.776 4153.66 674.871 4159.08 684.352H4060.04Z" fill="black"/>
<path d="M3756.25 691.991C3719.34 691.991 3689.04 683.018 3665.34 665.073L3659.24 589.904C3676.51 610.558 3694.62 626.472 3713.59 637.646C3730.85 647.804 3746.77 652.883 3761.33 652.883C3770.47 652.883 3777.58 650.682 3782.66 646.28C3788.08 641.879 3790.79 635.953 3790.79 628.504C3790.79 621.732 3789.09 616.314 3785.71 612.251C3782.32 607.85 3776.9 603.956 3769.46 600.57L3714.6 575.683C3698.01 567.895 3685.65 558.414 3677.53 547.24C3669.4 535.728 3665.34 521.846 3665.34 505.593C3665.34 490.356 3669.23 476.812 3677.02 464.961C3685.14 452.772 3696.32 443.291 3710.54 436.519C3725.1 429.747 3741.52 426.361 3759.81 426.361C3790.62 426.361 3817.2 433.979 3839.54 449.216V515.243C3828.37 500.006 3814.83 487.647 3798.91 478.166C3783.34 468.686 3768.78 463.945 3755.23 463.945C3746.09 463.945 3738.98 465.977 3733.9 470.04C3729.16 474.103 3726.79 479.69 3726.79 486.801C3726.79 492.557 3728.48 497.636 3731.87 502.038C3735.26 506.101 3740.84 509.825 3748.63 513.211L3802.47 537.59C3818.72 545.04 3830.91 554.69 3839.04 566.541C3847.5 578.053 3851.73 592.613 3851.73 610.22C3851.73 625.795 3847.84 639.847 3840.05 652.375C3832.27 664.565 3821.09 674.215 3806.53 681.325C3792.31 688.436 3775.55 691.991 3756.25 691.991Z" fill="black"/>
<path d="M3578.27 691.991C3564.73 691.991 3553.55 688.944 3544.75 682.849C3536.29 676.416 3530.36 667.274 3526.97 655.423C3519.86 665.581 3509.88 674.046 3497.01 680.818C3482.79 688.267 3468.06 691.991 3452.82 691.991C3437.58 691.991 3424.04 689.283 3412.19 683.865C3400.34 678.109 3391.03 670.152 3384.26 659.994C3377.48 649.836 3374.1 638.324 3374.1 625.457C3374.1 605.48 3381.72 589.058 3396.95 576.191C3412.53 562.985 3434.88 553.843 3464 548.764L3523.93 538.098V532.004C3523.93 515.412 3518.34 502.546 3507.17 493.404C3495.99 483.923 3480.59 479.182 3460.95 479.182C3443.34 479.182 3427.93 482.23 3414.73 488.325C3401.86 494.081 3390.52 503.223 3380.7 515.751C3383.41 486.632 3394.41 464.453 3413.71 449.216C3433.35 433.98 3459.09 426.361 3490.91 426.361C3523.76 426.361 3549.15 435.165 3567.1 452.772C3585.38 470.379 3594.53 495.604 3594.53 528.448V615.807C3594.53 632.737 3602.31 641.202 3617.89 641.202C3626.69 641.202 3633.97 638.324 3639.73 632.567C3638.03 651.19 3631.6 665.75 3620.43 676.247C3609.25 686.743 3595.2 691.991 3578.27 691.991ZM3446.22 611.236C3446.22 621.394 3449.77 629.52 3456.88 635.615C3464 641.71 3473.14 644.757 3484.31 644.757C3501.58 644.757 3514.79 638.493 3523.93 625.965V565.525L3487.87 572.128C3473.98 574.159 3463.49 578.9 3456.38 586.349C3449.61 593.121 3446.22 601.416 3446.22 611.236Z" fill="black"/>
<path d="M3195.75 691.984C3161.21 691.984 3130.4 684.196 3103.31 668.621C3077.24 653.384 3056.92 632.222 3042.36 605.134C3027.8 578.046 3020.52 547.234 3020.52 512.697C3020.52 474.435 3028.31 440.914 3043.89 412.133C3059.46 383.013 3081.47 360.666 3109.91 345.09C3138.36 329.176 3171.37 321.219 3208.95 321.219C3258.39 321.219 3297.83 332.732 3327.29 355.756V443.115C3312.06 418.058 3294.62 399.605 3274.98 387.754C3255.34 375.903 3232.99 369.977 3207.94 369.977C3185.25 369.977 3165.44 374.718 3148.51 384.199C3131.92 393.679 3119.06 407.562 3109.91 425.846C3100.77 443.792 3096.2 465.293 3096.2 490.349C3096.2 518.453 3101.79 543.001 3112.96 563.994C3123.46 584.31 3138.52 600.055 3158.16 611.229C3177.8 622.064 3200.32 627.481 3225.71 627.481C3249.75 627.481 3271.09 623.08 3289.71 614.276C3308.33 605.472 3322.72 592.944 3332.88 576.692C3329.49 614.276 3316.12 642.888 3292.76 662.526C3269.73 682.165 3237.4 691.984 3195.75 691.984Z" fill="black"/>
<path d="M2767.31 691.991C2730.4 691.991 2700.1 683.018 2676.39 665.073L2670.3 589.904C2687.57 610.558 2705.68 626.472 2724.64 637.646C2741.91 647.804 2757.83 652.883 2772.39 652.883C2781.53 652.883 2788.64 650.682 2793.72 646.28C2799.14 641.879 2801.84 635.953 2801.84 628.504C2801.84 621.732 2800.15 616.314 2796.76 612.251C2793.38 607.85 2787.96 603.956 2780.51 600.57L2725.66 575.683C2709.07 567.895 2696.71 558.414 2688.58 547.24C2680.46 535.728 2676.39 521.846 2676.39 505.593C2676.39 490.356 2680.29 476.812 2688.07 464.961C2696.2 452.772 2707.37 443.291 2721.6 436.519C2736.16 429.747 2752.58 426.361 2770.86 426.361C2801.67 426.361 2828.25 433.979 2850.6 449.216V515.243C2839.43 500.006 2825.88 487.647 2809.97 478.166C2794.39 468.686 2779.83 463.945 2766.29 463.945C2757.15 463.945 2750.04 465.977 2744.96 470.04C2740.22 474.103 2737.85 479.69 2737.85 486.801C2737.85 492.557 2739.54 497.636 2742.93 502.038C2746.31 506.101 2751.9 509.825 2759.69 513.211L2813.53 537.59C2829.78 545.04 2841.97 554.69 2850.09 566.541C2858.56 578.053 2862.79 592.613 2862.79 610.22C2862.79 625.795 2858.9 639.847 2851.11 652.375C2843.32 664.565 2832.15 674.215 2817.59 681.325C2803.37 688.436 2786.61 691.991 2767.31 691.991Z" fill="black"/>
<path d="M2538.17 691.991C2501.27 691.991 2470.96 683.018 2447.26 665.073L2441.17 589.904C2458.43 610.558 2476.55 626.472 2495.51 637.646C2512.78 647.804 2528.69 652.883 2543.25 652.883C2552.4 652.883 2559.51 650.682 2564.58 646.28C2570 641.879 2572.71 635.953 2572.71 628.504C2572.71 621.732 2571.02 616.314 2567.63 612.251C2564.25 607.85 2558.83 603.956 2551.38 600.57L2496.53 575.683C2479.94 567.895 2467.58 558.414 2459.45 547.24C2451.32 535.728 2447.26 521.846 2447.26 505.593C2447.26 490.356 2451.15 476.812 2458.94 464.961C2467.07 452.772 2478.24 443.291 2492.46 436.519C2507.02 429.747 2523.45 426.361 2541.73 426.361C2572.54 426.361 2599.12 433.979 2621.47 449.216V515.243C2610.3 500.006 2596.75 487.647 2580.84 478.166C2565.26 468.686 2550.7 463.945 2537.16 463.945C2528.02 463.945 2520.91 465.977 2515.83 470.04C2511.09 474.103 2508.72 479.69 2508.72 486.801C2508.72 492.557 2510.41 497.636 2513.8 502.038C2517.18 506.101 2522.77 509.825 2530.56 513.211L2584.39 537.59C2600.65 545.04 2612.83 554.69 2620.96 566.541C2629.43 578.053 2633.66 592.613 2633.66 610.22C2633.66 625.795 2629.76 639.847 2621.98 652.375C2614.19 664.565 2603.02 674.215 2588.46 681.325C2574.23 688.436 2557.47 691.991 2538.17 691.991Z" fill="black"/>
<path d="M2288.12 691.991C2261.37 691.991 2237.84 686.743 2217.53 676.247C2197.21 665.411 2181.46 650.174 2170.29 630.536C2159.12 610.558 2153.53 587.365 2153.53 560.954C2153.53 535.559 2158.61 512.704 2168.77 492.388C2178.93 471.733 2193.32 455.819 2211.94 444.645C2231.24 432.456 2253.76 426.361 2279.49 426.361C2305.9 426.361 2328.75 431.779 2348.05 442.614C2366.34 452.772 2380.22 467.331 2389.7 486.293C2399.18 505.254 2403.75 527.263 2403.42 552.32H2224.13C2224.81 568.572 2229.21 582.963 2237.33 595.491C2245.8 607.68 2257.14 617.161 2271.36 623.933C2285.92 630.366 2302.51 633.583 2321.14 633.583C2337.73 633.583 2352.96 631.213 2366.85 626.473C2380.73 621.732 2391.4 614.96 2398.84 606.157C2397.49 622.748 2392.75 637.308 2384.62 649.836C2375.82 663.041 2363.63 673.199 2348.05 680.31C2331.12 688.097 2311.15 691.991 2288.12 691.991ZM2224.13 522.354H2331.29C2331.29 502.715 2326.72 486.97 2317.58 475.119C2308.44 463.268 2295.57 457.343 2278.98 457.343C2262.39 457.343 2249.18 463.099 2239.36 474.611C2229.88 486.124 2224.81 502.038 2224.13 522.354Z" fill="black"/>
<path d="M2013.71 684.373C2018.79 676.924 2022.18 671.337 2023.87 667.613C2025.9 663.888 2027.26 660.333 2027.93 656.947C2028.27 654.577 2028.44 650.514 2028.44 644.757V533.528C2028.44 516.598 2024.04 503.731 2015.24 494.928C2006.77 485.786 1995.09 481.215 1980.19 481.215C1969.36 481.215 1959.71 483.585 1951.24 488.325C1942.78 493.065 1936 499.837 1930.93 508.641V642.726C1930.93 648.482 1931.09 652.545 1931.43 654.915C1932.11 657.963 1933.46 661.518 1935.5 665.581C1936.85 668.629 1940.24 674.893 1945.65 684.373H1846.11C1852.88 673.877 1857.11 666.428 1858.8 662.026C1859.82 658.64 1860.33 652.884 1860.33 644.757V496.451C1860.33 485.278 1859.65 477.151 1858.3 472.072C1856.26 463.946 1851.86 455.481 1845.09 446.677L1930.93 429.917V471.564C1939.05 457.682 1950.23 446.677 1964.45 438.551C1979.01 430.425 1995.09 426.362 2012.7 426.362C2039.78 426.362 2061.12 434.827 2076.69 451.756C2091.59 468.009 2099.04 489.849 2099.04 517.275V643.234C2099.04 648.99 2099.21 653.053 2099.55 655.423C2099.89 658.471 2101.07 662.026 2103.1 666.089C2104.46 668.798 2107.84 674.893 2113.26 684.373H2013.71Z" fill="black"/>
<path d="M1702.28 684.362C1709.05 673.865 1713.29 666.416 1714.98 662.014C1716 658.628 1716.5 652.872 1716.5 644.746V496.44C1716.5 485.266 1715.83 477.14 1714.47 472.061C1712.44 463.935 1708.04 455.47 1701.27 446.666L1787.1 429.905V642.714C1787.1 648.471 1787.27 652.534 1787.61 654.904C1788.29 657.951 1789.64 661.507 1791.67 665.57C1793.03 668.617 1796.41 674.881 1801.83 684.362H1702.28ZM1709.39 358.292C1709.39 346.441 1713.46 336.622 1721.58 328.834C1729.71 320.707 1739.87 316.644 1752.06 316.644C1764.25 316.644 1774.4 320.707 1782.53 328.834C1790.66 336.622 1794.72 346.61 1794.72 358.8C1794.72 370.651 1790.66 380.47 1782.53 388.258C1774.4 396.046 1764.25 399.939 1752.06 399.939C1739.87 399.939 1729.71 396.046 1721.58 388.258C1713.46 380.47 1709.39 370.481 1709.39 358.292Z" fill="black"/>
<path d="M1566.09 691.991C1529.18 691.991 1498.88 683.018 1475.18 665.073L1469.08 589.904C1486.35 610.558 1504.47 626.472 1523.43 637.646C1540.7 647.804 1556.61 652.883 1571.17 652.883C1580.31 652.883 1587.42 650.682 1592.5 646.28C1597.92 641.879 1600.63 635.953 1600.63 628.504C1600.63 621.732 1598.94 616.314 1595.55 612.251C1592.16 607.85 1586.75 603.956 1579.3 600.57L1524.44 575.683C1507.85 567.895 1495.49 558.414 1487.37 547.24C1479.24 535.728 1475.18 521.846 1475.18 505.593C1475.18 490.356 1479.07 476.812 1486.86 464.961C1494.99 452.772 1506.16 443.291 1520.38 436.519C1534.94 429.747 1551.36 426.361 1569.65 426.361C1600.46 426.361 1627.04 433.979 1649.39 449.216V515.243C1638.21 500.006 1624.67 487.647 1608.75 478.166C1593.18 468.686 1578.62 463.945 1565.08 463.945C1555.93 463.945 1548.82 465.977 1543.74 470.04C1539 474.103 1536.63 479.69 1536.63 486.801C1536.63 492.557 1538.33 497.636 1541.71 502.038C1545.1 506.101 1550.69 509.825 1558.47 513.211L1612.31 537.59C1628.56 545.04 1640.75 554.69 1648.88 566.541C1657.34 578.053 1661.58 592.613 1661.58 610.22C1661.58 625.795 1657.68 639.847 1649.89 652.375C1642.11 664.565 1630.93 674.215 1616.37 681.325C1602.15 688.436 1585.39 691.991 1566.09 691.991Z" fill="black"/>
<path d="M1341.83 496.448C1341.83 485.274 1341.15 477.148 1339.8 472.069C1337.77 463.943 1333.36 455.478 1326.59 446.674L1412.43 429.913V635.612C1412.43 642.045 1412.6 646.447 1412.94 648.817C1413.61 652.542 1414.97 656.266 1417 659.991C1419.03 663.716 1422.59 669.133 1427.66 676.244L1341.83 687.925V648.309C1334.38 661.515 1323.88 672.011 1310.34 679.799C1296.12 687.925 1280.54 691.988 1263.61 691.988C1236.53 691.988 1215.53 683.354 1200.63 666.086C1186.07 649.494 1178.79 627.486 1178.79 600.059V496.448C1178.79 485.274 1178.12 477.148 1176.76 472.069C1174.73 463.943 1170.33 455.478 1163.56 446.674L1249.9 429.913V584.822C1249.9 601.752 1254.13 614.788 1262.6 623.93C1271.06 632.734 1282.74 637.136 1297.64 637.136C1307.46 637.136 1316.1 634.935 1323.55 630.533C1330.99 626.131 1337.09 619.698 1341.83 611.233V496.448Z" fill="black"/>
<path d="M846 684.368C851.418 673.194 854.804 666.084 856.158 663.036C858.19 658.296 859.544 654.571 860.221 651.862C860.56 649.831 860.729 646.614 860.729 642.212V370.995C860.729 366.255 860.56 362.869 860.221 360.837C859.544 358.128 858.19 354.573 856.158 350.171C854.804 346.785 851.418 339.675 846 328.84H994.814C1031.04 328.84 1059.15 336.627 1079.12 352.203C1099.1 367.44 1109.09 388.094 1109.09 414.166C1109.09 427.372 1106.21 439.731 1100.46 451.243C1094.7 462.417 1086.24 471.728 1075.06 479.177C1062.87 487.304 1048.48 492.383 1031.89 494.414C1059.99 497.123 1082 506.604 1097.92 522.856C1113.15 538.432 1120.77 558.071 1120.77 581.773C1120.77 602.427 1115.69 620.542 1105.54 636.118C1095.72 651.354 1081.33 663.205 1062.36 671.67C1043.4 680.135 1020.55 684.368 993.798 684.368H846ZM934.882 644.752H982.117C1001.08 644.752 1016.31 638.996 1027.83 627.483C1039.34 615.971 1045.1 600.226 1045.1 580.249C1045.1 560.272 1039.17 544.527 1027.32 533.014C1015.81 521.502 1000.57 515.746 981.609 515.746H934.882V644.752ZM934.882 478.161H976.53C995.153 478.161 1009.04 473.252 1018.18 463.432C1027.32 453.613 1031.89 439.9 1031.89 422.293C1031.89 404.686 1027.49 391.142 1018.69 381.661C1009.2 371.503 995.322 366.424 977.038 366.424H934.882V478.161Z" fill="black"/>
<path d="M506.465 592.721C477.421 562.782 424.908 563.47 372.257 589.555C366.614 614.607 346.242 711.718 234.541 780.817C234.679 803.323 241.423 823.144 255.463 837.598C297.171 880.544 387.124 860.516 456.43 792.862C525.736 725.208 548.172 635.598 506.533 592.721H506.465Z" fill="#91F187"/>
<path d="M260.042 717.6C333.12 698.39 364.846 630.973 372.257 589.556C366.614 614.608 346.242 711.719 234.541 780.819C237.943 753.91 249.84 730.116 260.042 717.6Z" fill="#67B55E"/>
<path d="M565.715 318.51C591.409 225.484 564.091 136.773 504.699 120.369C445.308 103.966 376.333 166.08 350.64 259.106C324.946 352.133 352.263 440.843 411.655 457.246C471.047 473.65 540.022 411.536 565.715 318.51Z" fill="#91F187"/>
<path d="M565.702 157.273L613.81 168.147C601.077 147.431 583.527 132.703 562.054 126.784L520.484 115.428C539.204 122.999 554.483 137.727 565.702 157.273Z" fill="black"/>
<path d="M624.032 188.381L575.167 177.369C576.887 181.98 578.47 186.729 579.915 191.616L629.125 202.697C627.611 197.741 625.959 192.992 624.101 188.381H624.032Z" fill="black"/>
<path d="M586.747 231.678C588.811 259.759 585.989 290.592 577.318 321.907C550.201 420.051 477.041 485.434 413.86 468.159L463.826 482.405C527.076 499.887 600.374 434.435 627.49 336.154C636.438 303.669 639.26 271.735 636.713 242.828L586.816 231.609L586.747 231.678Z" fill="black"/>
<path d="M372.585 265.677C395.296 183.363 455.173 127.547 508.237 137.733C505.897 136.769 503.488 135.874 501.01 135.186C446.777 120.183 383.734 176.963 360.265 261.961C336.796 346.959 361.711 428.034 416.013 442.969C417.733 443.451 419.454 443.863 421.175 444.139C372.034 424.18 350.285 346.683 372.722 265.608L372.585 265.677Z" fill="black"/>
<path d="M539.659 334.906C543.927 321.485 546.748 308.065 548.125 295.057C540.691 315.704 529.611 323.482 523.555 325.271C516.535 327.336 509.101 324.445 509.101 324.445C486.389 393.063 450.394 412.059 423.14 411.233C407.241 410.751 395.817 401.253 389.072 393.476C396.849 411.714 409.168 425.135 425.204 430.779C466.843 445.37 518.049 402.423 539.59 334.906H539.659Z" fill="white"/>
<path d="M538.913 653.629L573.945 686.32C573.807 662.301 566.511 641.103 551.508 625.618L522.257 595.679C534.164 611.302 539.464 631.33 538.913 653.629Z" fill="black"/>
<path d="M572.113 708.761L536.531 675.588C535.637 680.405 534.535 685.223 533.227 690.11L569.016 723.49C570.255 718.534 571.356 713.579 572.113 708.692V708.761Z" fill="black"/>
<path d="M518.515 727.958C505.921 753.148 487.683 778.337 464.283 801.118C391.123 872.489 295.938 893.274 251.478 847.781L286.303 884.327C330.694 930.026 426.016 909.238 499.245 837.802C523.471 814.194 542.191 788.041 554.855 761.888L518.515 728.027V727.958Z" fill="black"/>
<path d="M437.112 773.659C472.625 739.041 493.273 697.609 495.474 663.127C475.309 726.446 430.712 721.903 430.712 721.903C414.744 758.793 381.846 792.311 343.786 808.416C314.742 820.735 289.071 816.95 275.513 812.2C308.892 845.512 380.951 828.443 437.112 773.728V773.659Z" fill="white"/>
<path d="M153.571 648.607C243.318 685.014 338.846 660.375 361.489 601.53C384.132 542.686 329.76 465.465 240.014 429.056C150.267 392.649 59.1441 410.818 36.5006 469.663C13.858 528.508 63.8926 612.198 153.571 648.675V648.607Z" fill="#91F187"/>
<path d="M233.054 448.882C153.63 416.672 71.9364 433.053 48.123 482.812C48.8115 480.266 49.4992 477.788 50.4628 475.311C71.1789 421.558 154.388 404.972 236.425 438.214C318.464 471.525 368.155 542.07 347.439 595.822C346.82 597.542 346.063 599.194 345.307 600.777C359.003 548.127 311.307 480.61 233.054 448.882Z" fill="black"/>
<path d="M232.637 459.619C165.878 432.57 98.4977 442.481 74.6843 480.954C84.5264 471.181 102.834 458.242 132.635 455.008C182.189 449.639 228.507 469.047 239.657 509.998C239.657 509.998 278.75 484.67 315.295 521.423C297.538 496.715 268.563 474.141 232.637 459.55V459.619Z" fill="white"/>
<path d="M261.523 714.682C250.373 737.463 246.794 756.871 247.207 772.838C250.236 770.843 253.196 768.846 256.017 766.782C258.564 735.88 271.984 712.48 271.984 712.48L261.523 714.682Z" fill="black"/>
<path d="M256.039 766.778C253.149 768.843 250.189 770.839 247.23 772.835C248.055 808.211 268.153 826.518 268.153 826.518C256.866 806.146 254.525 785.155 256.039 766.778Z" fill="black"/>
<path d="M17.415 484.532L3.03052 530.438C-2.75086 547.781 -0.0667797 573.178 9.43119 591.416L24.5033 548.882C15.6248 527.547 12.1842 504.56 17.346 484.532H17.415Z" fill="black"/>
<path d="M18.9805 613.58C21.5265 617.985 24.3485 622.32 27.3767 626.587L44.3071 581.163C41.2107 576.965 38.3887 572.767 35.7737 568.5L18.9805 613.649V613.58Z" fill="black"/>
<path d="M366.207 613.304L364.83 616.332C340.605 678.825 235.647 694.861 148.103 658.797C117.958 646.339 96.4166 634.571 75.2873 615.507L58.7693 660.655C82.995 680.614 100.477 690.663 131.792 703.326C223.948 740.766 321.265 713.581 343.013 668.708C343.976 667.056 357.122 643.862 365.381 616.057L366.207 613.304Z" fill="black"/>
</g>
</svg>
