<svg width="3155" height="500" viewBox="0 0 3155 500" fill="none" xmlns="http://www.w3.org/2000/svg">
<path d="M320.291 300.887C301.923 282.014 268.714 282.447 235.418 298.891C231.849 314.684 218.966 375.903 148.325 419.464C148.412 433.652 152.677 446.147 161.557 455.259C187.932 482.332 244.819 469.707 288.649 427.057C332.478 384.407 346.667 327.917 320.334 300.887H320.291Z" fill="#6CF479"/>
<path d="M164.452 379.612C210.667 367.502 230.731 325.002 235.418 298.893C231.849 314.686 218.966 375.905 148.325 419.465C150.477 402.502 158.001 387.502 164.452 379.612Z" fill="#67B55E"/>
<path d="M357.76 128.022C374.009 69.3776 356.733 13.4543 319.173 3.11327C281.614 -7.22772 237.994 31.9296 221.746 90.5736C205.497 149.218 222.773 205.141 260.332 215.482C297.892 225.823 341.512 186.666 357.76 128.022Z" fill="#6CF479"/>
<path d="M357.752 26.3793L388.176 33.2346C380.123 20.175 369.025 10.8902 355.445 7.15886L329.156 0C340.995 4.77258 350.657 14.0574 357.752 26.3793Z" fill="black"/>
<path d="M394.64 45.9908L363.738 39.0488C364.826 41.9558 365.827 44.9495 366.741 48.03L397.861 55.0155C396.904 51.8915 395.859 48.8977 394.684 45.9908H394.64Z" fill="black"/>
<path d="M371.06 73.2837C372.366 90.9858 370.581 110.423 365.097 130.164C347.949 192.034 301.682 233.252 261.726 222.362L293.325 231.343C333.324 242.364 379.678 201.102 396.827 139.145C402.485 118.667 404.27 98.5353 402.659 80.3122L371.104 73.2402L371.06 73.2837Z" fill="black"/>
<path d="M235.624 94.7171C249.986 42.826 287.853 7.63907 321.41 14.0604C319.931 13.453 318.407 12.889 316.84 12.4551C282.543 2.99669 242.674 38.7911 227.832 92.3741C212.99 145.957 228.747 197.067 263.088 206.482C264.176 206.786 265.264 207.046 266.352 207.22C235.275 194.638 221.521 145.784 235.71 94.6736L235.624 94.7171Z" fill="black"/>
<path d="M341.283 138.359C343.982 129.899 345.766 121.438 346.637 113.238C341.936 126.254 334.929 131.157 331.099 132.285C326.659 133.587 321.958 131.765 321.958 131.765C307.595 175.021 284.831 186.996 267.596 186.476C257.542 186.172 250.317 180.184 246.051 175.282C250.969 186.779 258.76 195.24 268.902 198.798C295.234 207.996 327.617 180.922 341.24 138.359H341.283Z" fill="white"/>
<path d="M340.811 339.284L362.965 359.893C362.878 344.751 358.264 331.388 348.776 321.626L330.278 302.752C337.808 312.6 341.159 325.226 340.811 339.284Z" fill="black"/>
<path d="M361.806 374.04L339.303 353.127C338.738 356.164 338.041 359.201 337.214 362.281L359.847 383.325C360.63 380.201 361.327 377.077 361.806 373.996V374.04Z" fill="black"/>
<path d="M327.91 386.141C319.945 402.021 308.412 417.9 293.614 432.261C247.347 477.254 187.152 490.357 159.035 461.678L181.058 484.716C209.132 513.525 269.414 500.42 315.724 455.387C331.044 440.505 342.883 424.018 350.892 407.531L327.91 386.184V386.141Z" fill="black"/>
<path d="M276.431 414.951C298.89 393.128 311.947 367.009 313.34 345.271C300.587 385.188 272.384 382.324 272.384 382.324C262.286 405.58 241.481 426.709 217.412 436.862C199.044 444.628 182.809 442.242 174.235 439.248C195.345 460.247 240.915 449.487 276.431 414.995V414.951Z" fill="white"/>
<path d="M97.1192 336.119C153.876 359.071 214.288 343.538 228.607 306.442C242.927 269.346 208.542 220.666 151.786 197.714C95.0296 174.762 37.4034 186.216 23.0837 223.312C8.76439 260.408 40.4064 313.167 97.1192 336.162V336.119Z" fill="#6CF479"/>
<path d="M147.384 210.21C97.156 189.905 45.4927 200.232 30.4331 231.601C30.8685 229.996 31.3034 228.434 31.9128 226.872C45.0137 192.986 97.6351 182.53 149.516 203.485C201.398 224.485 232.822 268.957 219.722 302.842C219.33 303.927 218.851 304.968 218.373 305.966C227.034 272.775 196.871 230.212 147.384 210.21Z" fill="black"/>
<path d="M147.119 216.98C104.9 199.929 62.2891 206.177 47.2295 230.43C53.4537 224.269 65.0313 216.112 83.8779 214.073C115.215 210.689 144.508 222.924 151.559 248.739C151.559 248.739 176.281 232.773 199.393 255.942C188.163 240.366 169.839 226.135 147.119 216.937V216.98Z" fill="white"/>
<path d="M165.388 377.773C158.336 392.134 156.073 404.369 156.334 414.435C158.249 413.177 160.121 411.918 161.906 410.617C163.516 391.136 172.003 376.385 172.003 376.385L165.388 377.773Z" fill="black"/>
<path d="M161.92 410.613C160.092 411.915 158.22 413.173 156.349 414.431C156.871 436.732 169.58 448.273 169.58 448.273C162.442 435.431 160.962 422.198 161.92 410.613Z" fill="black"/>
<path d="M11.0133 232.684L1.91651 261.623C-1.73965 272.556 -0.0422317 288.566 5.96431 300.064L15.4959 273.25C9.88119 259.8 7.70531 245.309 10.9696 232.684H11.0133Z" fill="black"/>
<path d="M12.0029 314.036C13.613 316.813 15.3977 319.546 17.3127 322.236L28.0196 293.6C26.0614 290.954 24.2767 288.307 22.623 285.617L12.0029 314.079V314.036Z" fill="black"/>
<path d="M231.59 313.863L230.719 315.772C215.399 355.168 149.024 365.277 93.6606 342.542C74.5969 334.689 60.9738 327.27 47.6116 315.252L37.1655 343.713C52.486 356.296 63.5414 362.63 83.345 370.613C141.625 394.216 203.168 377.078 216.922 348.79C217.531 347.748 225.845 333.127 231.068 315.599L231.59 313.863Z" fill="black"/>
<path d="M2954.26 214.899C2952.06 218.699 2950.26 221.999 2948.86 224.799C2947.46 227.599 2946.76 229.899 2946.76 231.699C2946.76 233.899 2947.86 237.799 2950.06 243.399L2979.76 321.999L3022.36 213.699H3038.56L3082.36 321.999L3111.76 244.299C3114.16 237.899 3115.36 233.499 3115.36 231.099C3115.36 229.099 3114.86 227.199 3113.86 225.399C3112.86 223.399 3110.76 219.899 3107.56 214.899H3147.46C3143.26 222.299 3140.56 227.199 3139.36 229.599C3138.16 231.999 3136.06 236.999 3133.06 244.599L3084.76 363.099H3070.06L3025.66 254.199L2980.96 363.099H2966.56L2918.86 245.499C2915.66 237.099 2913.36 231.599 2911.96 228.999C2910.76 226.399 2908.16 221.699 2904.16 214.899H2954.26Z" fill="black"/>
<path d="M2816.02 365.5C2801.22 365.5 2787.92 362.2 2776.12 355.6C2764.52 349 2755.32 339.8 2748.52 328C2741.92 316.2 2738.62 302.8 2738.62 287.8C2738.62 272.8 2741.92 259.4 2748.52 247.6C2755.32 235.8 2764.52 226.7 2776.12 220.3C2787.92 213.7 2801.22 210.4 2816.02 210.4C2830.82 210.4 2844.02 213.7 2855.62 220.3C2867.42 226.7 2876.62 235.8 2883.22 247.6C2890.02 259.4 2893.42 272.8 2893.42 287.8C2893.42 302.8 2890.02 316.2 2883.22 328C2876.62 339.8 2867.42 349 2855.62 355.6C2844.02 362.2 2830.82 365.5 2816.02 365.5ZM2817.52 346.6C2830.92 346.6 2841.62 341.8 2849.62 332.2C2857.62 322.4 2861.62 309.3 2861.62 292.9C2861.62 273.7 2857.32 258.4 2848.72 247C2840.12 235.4 2828.72 229.6 2814.52 229.6C2800.92 229.6 2790.12 234.4 2782.12 244C2774.32 253.4 2770.42 266.3 2770.42 282.7C2770.42 302.1 2774.72 317.6 2783.32 329.2C2791.92 340.8 2803.32 346.6 2817.52 346.6Z" fill="black"/>
<path d="M2666.67 361.001C2671.27 354.601 2673.97 350.401 2674.77 348.401C2675.57 346.401 2675.97 343.101 2675.97 338.501V173.201C2675.97 167.601 2675.37 163.101 2674.17 159.701C2673.17 156.101 2670.37 152.101 2665.77 147.701L2705.97 139.301V337.901C2705.97 342.301 2706.37 345.501 2707.17 347.501C2707.97 349.301 2710.77 353.801 2715.57 361.001H2666.67Z" fill="black"/>
<path d="M2503.41 361C2508.01 352.8 2510.71 347.7 2511.51 345.7C2512.31 343.7 2512.71 340.8 2512.71 337V174.4C2512.71 170.6 2512.31 167.8 2511.51 166C2510.71 164 2508.01 159 2503.41 151H2642.31V187.6C2636.31 182 2631.31 178 2627.31 175.6C2623.51 173 2620.21 171.4 2617.41 170.8C2614.81 170.2 2611.31 169.9 2606.91 169.9H2544.21V243.4H2595.81C2601.41 243.4 2606.01 242.8 2609.61 241.6C2613.21 240.4 2618.51 237.2 2625.51 232V274C2618.51 268.6 2613.21 265.3 2609.61 264.1C2606.01 262.9 2601.41 262.3 2595.81 262.3H2544.21V337.6C2544.21 340.4 2544.31 342.5 2544.51 343.9C2544.91 345.1 2546.01 347.2 2547.81 350.2C2549.61 353 2552.11 356.6 2555.31 361H2503.41Z" fill="black"/>
<path d="M2350.51 361.001C2355.31 354.601 2358.11 350.401 2358.91 348.401C2359.71 346.401 2360.11 343.101 2360.11 338.501V272.201C2360.11 260.401 2356.91 251.201 2350.51 244.601C2344.31 238.001 2335.71 234.701 2324.71 234.701C2307.91 234.701 2295.81 242.001 2288.41 256.601V337.901C2288.41 342.301 2288.81 345.501 2289.61 347.501C2290.41 349.301 2293.21 353.801 2298.01 361.001H2249.11C2253.71 354.601 2256.41 350.401 2257.21 348.401C2258.01 346.401 2258.41 343.101 2258.41 338.501V173.201C2258.41 167.601 2257.81 163.101 2256.61 159.701C2255.61 156.101 2252.81 152.101 2248.21 147.701L2288.41 139.301V238.901C2293.81 229.701 2300.71 222.701 2309.11 217.901C2317.71 212.901 2327.31 210.401 2337.91 210.401C2353.71 210.401 2366.31 215.401 2375.71 225.401C2385.31 235.201 2390.11 248.301 2390.11 264.701V338.201C2390.11 342.601 2390.51 345.801 2391.31 347.801C2392.11 349.601 2394.71 354.001 2399.11 361.001H2350.51Z" fill="black"/>
<path d="M2172.17 365.5C2151.57 365.5 2134.77 360.2 2121.77 349.6L2118.17 312.1C2127.17 324.3 2136.57 333.4 2146.37 339.4C2156.37 345.2 2166.07 348.1 2175.47 348.1C2182.27 348.1 2187.67 346.4 2191.67 343C2195.87 339.6 2197.97 334.9 2197.97 328.9C2197.97 323.5 2196.67 319.1 2194.07 315.7C2191.47 312.3 2187.37 309.4 2181.77 307L2151.17 293.8C2131.97 285.2 2122.37 271.9 2122.37 253.9C2122.37 245.5 2124.57 238 2128.97 231.4C2133.37 224.8 2139.47 219.7 2147.27 216.1C2155.07 212.3 2163.97 210.4 2173.97 210.4C2191.17 210.4 2205.67 214.8 2217.47 223.6V256.3C2211.47 247.3 2204.37 240.3 2196.17 235.3C2187.97 230.1 2179.67 227.5 2171.27 227.5C2164.27 227.5 2158.77 229.2 2154.77 232.6C2150.97 235.8 2149.07 240.2 2149.07 245.8C2149.07 254.8 2154.77 261.7 2166.17 266.5L2195.57 279.4C2205.17 283.6 2212.37 289 2217.17 295.6C2221.97 302.2 2224.37 310.6 2224.37 320.8C2224.37 329.2 2222.17 336.8 2217.77 343.6C2213.57 350.4 2207.47 355.8 2199.47 359.8C2191.47 363.6 2182.37 365.5 2172.17 365.5Z" fill="black"/>
<path d="M2076.28 365.5C2068.48 365.5 2062.18 363.5 2057.38 359.5C2052.78 355.5 2049.78 349.7 2048.38 342.1C2043.78 348.9 2037.38 354.5 2029.18 358.9C2021.18 363.3 2012.28 365.5 2002.48 365.5C1988.68 365.5 1977.28 361.9 1968.28 354.7C1959.48 347.5 1955.08 338.2 1955.08 326.8C1955.08 315.2 1959.58 305.6 1968.58 298C1977.58 290.4 1990.38 285.2 2006.98 282.4L2047.78 275.5V271.6C2047.78 259.4 2044.28 250.1 2037.28 243.7C2030.28 237.1 2020.28 233.8 2007.28 233.8C1996.28 233.8 1986.88 236 1979.08 240.4C1971.28 244.6 1964.58 251.1 1958.98 259.9C1960.78 244.1 1966.98 231.9 1977.58 223.3C1988.18 214.7 2002.08 210.4 2019.28 210.4C2038.08 210.4 2052.48 215.4 2062.48 225.4C2072.68 235.4 2077.78 249.8 2077.78 268.6V327.4C2077.78 332.4 2078.98 336.3 2081.38 339.1C2083.98 341.7 2087.58 343 2092.18 343C2098.38 343 2103.28 340.8 2106.88 336.4C2106.08 345.2 2102.88 352.3 2097.28 357.7C2091.68 362.9 2084.68 365.5 2076.28 365.5ZM1985.98 321.1C1985.98 328.3 1988.58 334 1993.78 338.2C1999.18 342.2 2006.18 344.2 2014.78 344.2C2022.18 344.2 2028.68 342.7 2034.28 339.7C2039.88 336.7 2044.38 332.6 2047.78 327.4V288.4L2014.48 294.7C2004.88 296.3 1997.68 299.4 1992.88 304C1988.28 308.6 1985.98 314.3 1985.98 321.1Z" fill="black"/>
<path d="M1852.4 365.5C1832.2 365.5 1814.3 361 1798.7 352C1783.3 343 1771.3 330.4 1762.7 314.2C1754.3 298 1750.1 279.5 1750.1 258.7C1750.1 236.3 1754.6 216.7 1763.6 199.9C1772.6 182.9 1785.3 169.8 1801.7 160.6C1818.1 151.2 1837.1 146.5 1858.7 146.5C1888.3 146.5 1911.7 153.9 1928.9 168.7V209.2C1911.3 181.6 1887.2 167.8 1856.6 167.8C1833.4 167.8 1815.1 175 1801.7 189.4C1788.5 203.8 1781.9 223.4 1781.9 248.2C1781.9 266.2 1785.4 282 1792.4 295.6C1799.4 309 1809.2 319.4 1821.8 326.8C1834.4 334 1848.9 337.6 1865.3 337.6C1880.1 337.6 1893.4 334.5 1905.2 328.3C1917 321.9 1926.1 312.8 1932.5 301C1930.3 321.8 1922.3 337.8 1908.5 349C1894.7 360 1876 365.5 1852.4 365.5Z" fill="black"/>
<path d="M1601.16 365.5C1580.56 365.5 1563.76 360.2 1550.76 349.6L1547.16 312.1C1556.16 324.3 1565.56 333.4 1575.36 339.4C1585.36 345.2 1595.06 348.1 1604.46 348.1C1611.26 348.1 1616.66 346.4 1620.66 343C1624.86 339.6 1626.96 334.9 1626.96 328.9C1626.96 323.5 1625.66 319.1 1623.06 315.7C1620.46 312.3 1616.36 309.4 1610.76 307L1580.16 293.8C1560.96 285.2 1551.36 271.9 1551.36 253.9C1551.36 245.5 1553.56 238 1557.96 231.4C1562.36 224.8 1568.46 219.7 1576.26 216.1C1584.06 212.3 1592.96 210.4 1602.96 210.4C1620.16 210.4 1634.66 214.8 1646.46 223.6V256.3C1640.46 247.3 1633.36 240.3 1625.16 235.3C1616.96 230.1 1608.66 227.5 1600.26 227.5C1593.26 227.5 1587.76 229.2 1583.76 232.6C1579.96 235.8 1578.06 240.2 1578.06 245.8C1578.06 254.8 1583.76 261.7 1595.16 266.5L1624.56 279.4C1634.16 283.6 1641.36 289 1646.16 295.6C1650.96 302.2 1653.36 310.6 1653.36 320.8C1653.36 329.2 1651.16 336.8 1646.76 343.6C1642.56 350.4 1636.46 355.8 1628.46 359.8C1620.46 363.6 1611.36 365.5 1601.16 365.5Z" fill="black"/>
<path d="M1471.15 365.5C1450.55 365.5 1433.75 360.2 1420.75 349.6L1417.15 312.1C1426.15 324.3 1435.55 333.4 1445.35 339.4C1455.35 345.2 1465.05 348.1 1474.45 348.1C1481.25 348.1 1486.65 346.4 1490.65 343C1494.85 339.6 1496.95 334.9 1496.95 328.9C1496.95 323.5 1495.65 319.1 1493.05 315.7C1490.45 312.3 1486.35 309.4 1480.75 307L1450.15 293.8C1430.95 285.2 1421.35 271.9 1421.35 253.9C1421.35 245.5 1423.55 238 1427.95 231.4C1432.35 224.8 1438.45 219.7 1446.25 216.1C1454.05 212.3 1462.95 210.4 1472.95 210.4C1490.15 210.4 1504.65 214.8 1516.45 223.6V256.3C1510.45 247.3 1503.35 240.3 1495.15 235.3C1486.95 230.1 1478.65 227.5 1470.25 227.5C1463.25 227.5 1457.75 229.2 1453.75 232.6C1449.95 235.8 1448.05 240.2 1448.05 245.8C1448.05 254.8 1453.75 261.7 1465.15 266.5L1494.55 279.4C1504.15 283.6 1511.35 289 1516.15 295.6C1520.95 302.2 1523.35 310.6 1523.35 320.8C1523.35 329.2 1521.15 336.8 1516.75 343.6C1512.55 350.4 1506.45 355.8 1498.45 359.8C1490.45 363.6 1481.35 365.5 1471.15 365.5Z" fill="black"/>
<path d="M1330.55 365.5C1315.55 365.5 1302.25 362.5 1290.65 356.5C1279.05 350.3 1270.05 341.4 1263.65 329.8C1257.25 318.2 1254.05 304.5 1254.05 288.7C1254.05 274.1 1256.85 260.9 1262.45 249.1C1268.25 237.1 1276.55 227.7 1287.35 220.9C1298.15 213.9 1311.05 210.4 1326.05 210.4C1348.05 210.4 1365.15 217 1377.35 230.2C1389.75 243.2 1395.85 260.7 1395.65 282.7H1284.35C1284.35 300.7 1289.75 314.7 1300.55 324.7C1311.55 334.5 1325.85 339.4 1343.45 339.4C1354.65 339.4 1364.55 337.6 1373.15 334C1381.75 330.4 1388.45 325.1 1393.25 318.1C1391.85 332.3 1385.65 343.8 1374.65 352.6C1363.85 361.2 1349.15 365.5 1330.55 365.5ZM1364.75 268.6C1364.55 255.8 1360.95 245.3 1353.95 237.1C1347.15 228.9 1337.55 224.8 1325.15 224.8C1313.15 224.8 1303.65 228.7 1296.65 236.5C1289.65 244.3 1285.65 255 1284.65 268.6H1364.75Z" fill="black"/>
<path d="M1183.31 361C1187.91 354.6 1190.61 350.4 1191.41 348.4C1192.21 346.4 1192.61 343.1 1192.61 338.5V272.2C1192.61 260.4 1189.41 251.2 1183.01 244.6C1176.81 238 1168.31 234.7 1157.51 234.7C1141.11 234.7 1129.01 241.8 1121.21 256V337.9C1121.21 342.3 1121.61 345.5 1122.41 347.5C1123.21 349.3 1125.91 353.8 1130.51 361H1081.61C1086.41 354.6 1089.21 350.4 1090.01 348.4C1090.81 346.4 1091.21 343.1 1091.21 338.5V247C1091.21 241.2 1090.61 236.6 1089.41 233.2C1088.41 229.8 1085.51 225.9 1080.71 221.5L1121.21 212.8V238.3C1126.61 229.1 1133.51 222.2 1141.91 217.6C1150.31 212.8 1159.81 210.4 1170.41 210.4C1186.41 210.4 1199.11 215.4 1208.51 225.4C1217.91 235.2 1222.61 248.3 1222.61 264.7V338.2C1222.61 342.6 1223.01 345.8 1223.81 347.8C1224.61 349.6 1227.31 354 1231.91 361H1183.31Z" fill="black"/>
<path d="M1005.81 361C1010.41 354.6 1013.11 350.4 1013.91 348.4C1014.71 346.4 1015.11 343.1 1015.11 338.5V247C1015.11 241.4 1014.51 236.9 1013.31 233.5C1012.31 229.9 1009.41 225.9 1004.61 221.5L1045.11 212.8V337.9C1045.11 342.3 1045.51 345.5 1046.31 347.5C1047.11 349.3 1049.81 353.8 1054.41 361H1005.81ZM1030.41 187.6C1024.41 187.6 1019.41 185.7 1015.41 181.9C1011.61 178.1 1009.71 173.3 1009.71 167.5C1009.71 161.7 1011.61 156.9 1015.41 153.1C1019.41 149.1 1024.41 147.1 1030.41 147.1C1036.21 147.1 1041.01 149.1 1044.81 153.1C1048.81 156.9 1050.81 161.7 1050.81 167.5C1050.81 173.3 1048.81 178.1 1044.81 181.9C1041.01 185.7 1036.21 187.6 1030.41 187.6Z" fill="black"/>
<path d="M927.976 365.5C907.376 365.5 890.576 360.2 877.576 349.6L873.976 312.1C882.976 324.3 892.376 333.4 902.176 339.4C912.176 345.2 921.876 348.1 931.276 348.1C938.076 348.1 943.476 346.4 947.476 343C951.676 339.6 953.776 334.9 953.776 328.9C953.776 323.5 952.476 319.1 949.876 315.7C947.276 312.3 943.176 309.4 937.576 307L906.976 293.8C887.776 285.2 878.176 271.9 878.176 253.9C878.176 245.5 880.376 238 884.776 231.4C889.176 224.8 895.276 219.7 903.076 216.1C910.876 212.3 919.776 210.4 929.776 210.4C946.976 210.4 961.476 214.8 973.276 223.6V256.3C967.276 247.3 960.176 240.3 951.976 235.3C943.776 230.1 935.476 227.5 927.076 227.5C920.076 227.5 914.576 229.2 910.576 232.6C906.776 235.8 904.876 240.2 904.876 245.8C904.876 254.8 910.576 261.7 921.976 266.5L951.376 279.4C960.976 283.6 968.176 289 972.976 295.6C977.776 302.2 980.176 310.6 980.176 320.8C980.176 329.2 977.976 336.8 973.576 343.6C969.376 350.4 963.276 355.8 955.276 359.8C947.276 363.6 938.176 365.5 927.976 365.5Z" fill="black"/>
<path d="M809.209 247.001C809.209 241.201 808.609 236.601 807.409 233.201C806.409 229.801 803.509 225.901 798.709 221.501L839.209 212.801V335.501C839.209 339.901 839.709 343.401 840.709 346.001C841.909 348.401 844.909 352.101 849.709 357.101L809.209 363.101V339.401C804.209 347.601 797.509 354.001 789.109 358.601C780.909 363.201 771.809 365.501 761.809 365.501C745.609 365.501 733.009 360.501 724.009 350.501C715.009 340.501 710.509 327.001 710.509 310.001V247.001C710.509 241.201 709.909 236.601 708.709 233.201C707.709 229.801 704.809 225.901 700.009 221.501L740.509 212.801V304.001C740.509 315.801 743.609 325.001 749.809 331.601C756.009 338.001 764.509 341.201 775.309 341.201C791.309 341.201 802.609 334.401 809.209 320.801V247.001Z" fill="black"/>
<path d="M521 361C525.6 352.8 528.3 347.7 529.1 345.7C529.9 343.7 530.3 340.8 530.3 337V174.4C530.3 170.6 529.9 167.8 529.1 166C528.3 164 525.6 159 521 151H604.1C624.1 151 639.6 155.5 650.6 164.5C661.8 173.5 667.4 185.7 667.4 201.1C667.4 213.3 663.4 223.9 655.4 232.9C647.6 241.9 636.8 247.2 623 248.8C638.8 250.4 651.5 256 661.1 265.6C670.7 275.2 675.5 287.3 675.5 301.9C675.5 320.1 669.2 334.5 656.6 345.1C644 355.7 626.2 361 603.2 361H521ZM598.7 343.3C612.5 343.3 623.3 339.6 631.1 332.2C638.9 324.8 642.8 314.4 642.8 301C642.8 287.4 638.8 276.9 630.8 269.5C623 261.9 612.1 258.1 598.1 258.1H561.8V343.3H598.7ZM596.6 241C608.8 241 618.1 237.8 624.5 231.4C631.1 225 634.4 216 634.4 204.4C634.4 193 631.2 184.1 624.8 177.7C618.4 171.3 609.1 168.1 596.9 168.1H561.8V241H596.6Z" fill="black"/>
</svg>
