<svg viewBox="0 0 838 140" xmlns="http://www.w3.org/2000/svg">
<path d="M186.385 138.028V75.9155C189.948 70.9859 198.858 64.0845 209.747 64.0845C215.686 64.0845 220.834 66.0563 224.2 69.4085C227.763 72.9578 229.941 77.8873 229.941 87.3521V138.028H255.679V89.324C255.679 72.9578 252.115 63.2958 245.78 55.8028C237.86 46.338 225.783 40.4225 212.519 40.4225C201.827 40.4225 192.72 44.169 185.395 50.0845V42.3944H160.647V138.028H186.385Z" fill="white"/>
<path d="M350.536 108.254C345.982 113.183 337.271 119.296 326.382 119.296C312.721 119.296 301.832 110.028 300.446 96.6197H366.968C367.364 94.4507 367.562 91.8873 367.562 89.324C367.562 62.7042 348.754 40.4225 322.224 40.4225C293.715 40.4225 275.5 63.6901 275.5 90.3099C275.5 120.282 297.08 140 325.788 140C340.637 140 355.881 133.887 365.186 122.845L350.536 108.254ZM301.634 77.8873C302.822 69.2113 311.533 61.1268 322.224 61.1268C332.717 61.1268 340.439 69.4085 341.23 77.8873H301.634Z" fill="white"/>
<path d="M390.361 0V138.028H444.41C462.229 138.028 472.92 133.296 480.641 125.606C488.363 118.113 493.312 107.465 493.312 95.831C493.312 80.4507 484.799 66.6479 472.524 60.5352C477.078 55.8028 481.433 46.5352 481.433 37.4648C481.433 26.2254 476.286 16.3662 468.564 9.66198C461.833 3.74648 453.122 0 437.481 0H390.361ZM417.089 23.662H435.897C444.212 23.662 447.974 25.6338 450.746 28.5916C453.122 31.1549 454.706 34.7042 454.706 38.4507C454.706 42.1972 453.122 45.7465 450.746 48.3099C447.974 51.2676 444.212 53.2394 435.897 53.2394H417.089V23.662ZM417.089 114.366V76.9014H443.816C453.122 76.9014 458.269 79.2676 461.635 83.0141C464.803 86.3662 466.584 90.7042 466.584 95.6338C466.584 100.563 464.803 104.901 461.635 108.254C458.269 112 453.122 114.366 443.816 114.366H417.089Z" fill="white"/>
<path d="M582.335 104.507C577.385 111.606 568.872 116.338 559.171 116.338C544.718 116.338 533.829 105.296 533.829 90.3099C533.829 76.507 543.53 64.0845 558.577 64.0845C568.476 64.0845 576.989 68.8169 582.335 75.9155V104.507ZM608.073 42.3944H583.325V50.0845C575.801 43.9718 566.1 40.4225 555.211 40.4225C529.077 40.4225 508.091 62.1127 508.091 90.3099C508.091 103.324 512.843 115.155 520.366 123.831C528.879 133.69 542.342 140 556.597 140C566.298 140 575.405 137.042 583.325 130.338V138.028H608.073V42.3944Z" fill="white"/>
<path d="M663.554 138.028V75.9155C667.118 70.9859 676.027 64.0845 686.916 64.0845C692.855 64.0845 698.003 66.0563 701.369 69.4085C704.932 72.9578 707.11 77.8873 707.11 87.3521V138.028H732.848V89.324C732.848 72.9578 729.284 63.2958 722.949 55.8028C715.03 46.338 702.953 40.4225 689.688 40.4225C678.997 40.4225 669.889 44.169 662.564 50.0845V42.3944H637.816V138.028H663.554Z" fill="white"/>
<path d="M765.934 42.3944H736.435L768.706 86.9578L731.881 138.028H762.371L784.941 105.69L807.511 138.028H838L801.175 86.9578L833.446 42.3944H803.947L784.941 69.6056L765.934 42.3944Z" fill="white"/>
<path d="M71.1139 3.17729C54.7832 3.18302 38.9516 8.77278 26.2775 19.008C13.6033 29.2433 4.85829 43.5008 1.51073 59.3866C-1.83683 75.2724 0.416913 91.8193 7.89355 106.249C15.3702 120.678 27.6144 132.112 42.5705 138.63L58.3682 117.259C47.8627 114.205 38.8178 107.487 32.8931 98.3399C26.9685 89.1925 24.5616 78.2285 26.114 67.4598C27.6664 56.6911 33.0741 46.8399 41.3446 39.7138C49.6152 32.5878 60.194 28.6648 71.1399 28.6648C82.0858 28.6648 92.6646 32.5878 100.935 39.7138C109.206 46.8399 114.613 56.6911 116.166 67.4598C117.718 78.2285 115.311 89.1925 109.387 98.3399C103.462 107.487 94.4172 114.205 83.9116 117.259L99.6862 138.63C114.645 132.111 126.89 120.675 134.366 106.242C141.843 91.81 144.094 75.2601 140.743 59.3726C137.392 43.485 128.642 29.2274 115.962 18.9945C103.283 8.76149 87.4471 3.17643 71.1139 3.17729Z" fill="white"/>
</svg>
