<svg viewBox="0 0 2000 1000" fill="black" xmlns="http://www.w3.org/2000/svg">
<g>
<path d="M1997.4 525.317L1923.27 617.791L2000.02 714.384H1940.49L1893.32 648.491L1846.14 714.384H1786.62L1863.37 617.791L1789.24 525.317H1845.39L1893.32 585.968L1941.24 525.317H1997.4Z" />
<path d="M1661.42 525.317V552.273C1667.16 544.536 1674.9 537.298 1684.63 530.558C1694.61 523.819 1705.97 520.45 1718.7 520.45C1737.92 520.45 1754.02 526.939 1767 539.918C1779.98 552.897 1786.46 572.365 1786.46 598.323V714.384H1738.92L1738.54 604.688C1738.54 591.958 1735.42 582.474 1729.18 576.234C1723.19 569.994 1714.83 566.874 1704.1 566.874C1695.61 566.874 1687.63 569.62 1680.14 575.111C1672.9 580.602 1666.66 587.091 1661.42 594.579V714.384H1613.87V525.317H1661.42Z" />
<path d="M1480.52 519.971C1490.76 519.971 1501.12 522.343 1511.61 527.087C1522.09 531.831 1530.83 538.197 1537.82 546.187V524.84H1585.39V713.968H1537.82V682.135C1532.33 692.371 1524.34 701.235 1513.85 708.725C1503.37 715.966 1491.13 719.586 1477.15 719.586C1461.92 719.586 1447.81 715.716 1434.83 707.976C1422.1 700.236 1411.86 689.001 1404.12 674.27C1396.38 659.539 1392.51 641.688 1392.51 620.715C1392.51 599.742 1396.38 581.766 1404.12 566.785C1412.11 551.805 1422.72 540.32 1435.96 532.33C1449.44 524.091 1464.29 519.971 1480.52 519.971ZM1490.26 566.411C1480.27 566.411 1471.66 569.032 1464.42 574.275C1457.43 579.269 1451.93 585.885 1447.94 594.125C1443.94 602.364 1441.95 611.227 1441.95 620.715C1441.95 634.946 1446.19 647.056 1454.68 657.043C1463.42 667.03 1474.9 672.023 1489.14 672.023C1497.62 672.023 1505.49 669.776 1512.73 665.282C1520.22 660.788 1526.21 654.546 1530.71 646.556C1535.45 638.317 1537.82 628.455 1537.82 616.97V590.005C1531.08 582.764 1523.72 577.022 1515.73 572.777C1507.99 568.533 1499.5 566.411 1490.26 566.411Z" />
<path d="M1271.83 457.053C1291.31 457.053 1308.28 460.174 1322.77 466.416C1337.25 472.408 1348.48 480.772 1356.47 491.508C1364.71 502.244 1368.83 514.603 1368.83 528.585C1368.83 541.069 1365.46 552.179 1358.72 561.917C1352.23 571.654 1343.99 579.144 1334 584.387C1341.49 586.385 1348.73 589.755 1355.72 594.499C1362.71 598.993 1368.46 605.11 1372.95 612.85C1377.44 620.34 1379.69 629.953 1379.69 641.688C1379.69 655.669 1375.45 668.528 1366.96 680.262C1358.47 691.747 1346.61 700.985 1331.38 707.976C1316.15 714.967 1298.42 718.463 1278.2 718.463C1246.24 718.463 1211.7 718.712 1177.08 718.712L1177.08 457.68C1205.15 457.68 1243.19 457.053 1271.83 457.053ZM1271.83 504.616C1255.85 504.616 1241.62 505.865 1229.14 508.361V569.032H1275.95C1288.68 569.032 1298.67 565.911 1305.91 559.67C1313.4 553.428 1317.15 545.438 1317.15 535.701C1317.15 525.714 1312.65 518.099 1303.67 512.856C1294.93 507.363 1284.32 504.616 1271.83 504.616ZM1229.14 667.154C1236.13 668.902 1244.12 670.151 1253.11 670.9C1262.34 671.399 1269.71 671.649 1275.2 671.649C1289.68 671.649 1301.54 668.777 1310.78 663.035C1320.27 657.292 1325.01 649.178 1325.01 638.692C1325.01 628.205 1320.14 620.465 1310.41 615.472C1300.67 610.229 1288.93 607.607 1275.2 607.607H1229.14V667.154Z" />
<path d="M1060.66 520.45C1079.13 520.45 1094.98 524.444 1108.21 532.431C1121.69 540.418 1131.92 551.525 1138.91 565.751C1146.15 579.729 1149.77 595.952 1149.77 614.422V634.639H1012.74C1015.24 647.368 1021.48 657.602 1031.46 665.339C1041.44 673.077 1053.67 676.945 1068.15 676.945C1081.88 676.945 1094.36 674.2 1105.59 668.709C1116.82 663.218 1125.81 657.602 1132.55 651.861L1132.17 696.039C1126.18 701.281 1117.2 706.647 1105.22 712.138C1093.48 717.379 1080.51 720 1066.28 720C1047.56 720 1030.46 715.757 1014.99 707.271C999.762 698.785 987.532 687.179 978.297 672.453C969.312 657.727 964.819 640.879 964.819 621.91C964.819 603.44 968.938 586.592 977.174 571.367C985.411 556.142 996.767 543.912 1011.24 534.677C1025.72 525.192 1042.19 520.45 1060.66 520.45ZM1059.54 562.007C1047.81 562.007 1037.95 565.627 1029.96 572.865C1021.98 580.103 1016.49 589.837 1013.49 602.067H1104.09C1103.09 588.589 1098.1 578.605 1089.12 572.116C1080.13 565.377 1070.27 562.007 1059.54 562.007Z" />
<path d="M816.107 525.317V552.273C821.848 544.536 829.585 537.298 839.319 530.559C849.303 523.82 860.66 520.45 873.389 520.45C892.607 520.45 908.706 526.94 921.685 539.918C934.664 552.897 941.153 572.366 941.153 598.323V714.384H893.606L893.231 604.688C893.231 591.959 890.112 582.474 883.872 576.234C877.881 569.994 869.52 566.875 858.788 566.875C850.301 566.875 842.314 569.62 834.827 575.111C827.588 580.602 821.349 587.092 816.107 594.579V714.384H768.56V525.317H816.107Z" />
<path d="M601.188 445.424C568.536 445.435 536.882 456.433 511.54 476.57C486.199 496.708 468.714 524.758 462.021 556.013C455.327 587.268 459.834 619.823 474.783 648.213C489.732 676.602 514.214 699.097 544.117 711.921L575.704 669.875C554.699 663.865 536.614 650.649 524.768 632.652C512.922 614.655 508.11 593.084 511.214 571.897C514.318 550.71 525.13 531.328 541.666 517.308C558.203 503.288 579.355 495.569 601.24 495.569C623.126 495.569 644.278 503.288 660.814 517.308C677.351 531.328 688.163 550.71 691.267 571.897C694.371 593.084 689.559 614.655 677.713 632.652C665.867 650.649 647.782 663.865 626.777 669.875L658.317 711.921C688.226 699.095 712.71 676.595 727.659 648.2C742.607 619.805 747.109 587.244 740.408 555.986C733.707 524.727 716.212 496.676 690.861 476.543C665.509 456.41 633.846 445.422 601.188 445.424Z" />
<path d="M1929.31 303.62L1956.05 359.857L1982.03 303.62H1997L1940.77 416.705H1926.25L1948.1 375.445L1914.33 303.62H1929.31Z" />
<path d="M1870.7 302.092C1877.73 302.092 1883.99 303.773 1889.49 307.135C1895.1 310.395 1899.48 315.081 1902.63 321.194C1905.89 327.307 1907.52 334.591 1907.52 343.047C1907.52 350.79 1905.89 357.616 1902.63 363.525C1899.48 369.434 1895.2 374.069 1889.8 377.431C1884.5 380.691 1878.54 382.321 1871.92 382.321C1866.11 382.321 1860.92 380.793 1856.33 377.737C1851.85 374.68 1848.28 371.115 1845.63 367.039V380.029H1833.1V270H1845.63V313.859C1848.89 310.191 1852.77 307.339 1857.25 305.301C1861.83 303.162 1866.31 302.092 1870.7 302.092ZM1868.4 314.47C1863.72 314.47 1859.59 315.591 1856.03 317.832C1852.46 319.971 1849.05 323.028 1845.79 327.001L1845.63 341.672C1845.63 347.071 1846.65 351.91 1848.69 356.189C1850.83 360.468 1853.73 363.83 1857.4 366.275C1861.17 368.72 1865.35 369.943 1869.93 369.943C1874.92 369.943 1879.25 368.72 1882.92 366.275C1886.59 363.83 1889.44 360.57 1891.48 356.495C1893.52 352.42 1894.54 347.937 1894.54 343.047C1894.54 338.055 1893.47 333.419 1891.33 329.141C1889.29 324.76 1886.33 321.245 1882.46 318.596C1878.59 315.845 1873.9 314.47 1868.4 314.47Z" />
<path d="M1767.54 270V380.029H1755.01V367.039C1752.36 371.115 1748.74 374.68 1744.16 377.737C1739.67 380.793 1734.53 382.321 1728.72 382.321C1722.2 382.321 1716.24 380.691 1710.84 377.431C1705.44 374.069 1701.11 369.434 1697.85 363.525C1694.69 357.616 1693.12 350.79 1693.12 343.047C1693.12 334.591 1694.69 327.307 1697.85 321.194C1701.11 315.081 1705.54 310.395 1711.15 307.135C1716.75 303.773 1723.02 302.092 1729.94 302.092C1734.33 302.092 1738.76 303.162 1743.24 305.301C1747.82 307.339 1751.75 310.191 1755.01 313.859V270H1767.54ZM1732.24 314.623C1726.74 314.623 1722.05 315.998 1718.18 318.749C1714.31 321.398 1711.3 324.862 1709.16 329.141C1707.12 333.419 1706.1 338.055 1706.1 343.047C1706.1 347.937 1707.12 352.471 1709.16 356.648C1711.2 360.723 1714.05 363.983 1717.72 366.428C1721.49 368.873 1725.82 370.096 1730.71 370.096C1735.39 370.096 1739.57 368.873 1743.24 366.428C1746.91 363.983 1749.81 360.621 1751.95 356.342C1754.09 351.961 1755.11 347.071 1755.01 341.672L1754.85 327.001C1751.7 323.028 1748.28 319.971 1744.61 317.832C1741.05 315.693 1736.92 314.623 1732.24 314.623Z" />
<path d="M1645.82 302.092C1653.66 302.092 1660.18 303.722 1665.38 306.982C1670.57 310.242 1674.44 314.674 1676.99 320.277C1679.64 325.88 1680.96 332.197 1680.96 339.226V346.714H1622.28C1622.89 350.993 1624.37 354.915 1626.71 358.481C1629.06 362.047 1632.11 364.899 1635.88 367.039C1639.65 369.076 1643.98 370.095 1648.87 370.095C1654.37 370.095 1659.52 368.72 1664.31 365.969C1669.09 363.116 1673.12 360.009 1676.38 356.647L1676.23 370.248C1674.8 371.98 1672.66 373.814 1669.81 375.749C1667.06 377.583 1663.85 379.111 1660.18 380.334C1656.61 381.658 1652.84 382.32 1648.87 382.32C1641.13 382.32 1634.25 380.487 1628.24 376.819C1622.23 373.151 1617.49 368.312 1614.03 362.301C1610.67 356.189 1608.99 349.516 1608.99 342.282C1608.99 335.049 1610.57 328.376 1613.72 322.264C1616.88 316.151 1621.21 311.261 1626.71 307.593C1632.32 303.926 1638.68 302.092 1645.82 302.092ZM1645.82 314.317C1639.5 314.317 1634.3 316.457 1630.23 320.735C1626.15 324.912 1623.61 330.006 1622.59 336.017H1668.58C1668.08 331.025 1666.65 326.95 1664.31 323.792C1662.06 320.634 1659.31 318.29 1656.05 316.762C1652.79 315.132 1649.38 314.317 1645.82 314.317Z" />
<path d="M1569.94 303.62V318.902C1572.89 313.808 1576.46 309.733 1580.64 306.676C1584.81 303.62 1589.09 302.092 1593.47 302.092C1596.43 302.092 1599.08 302.601 1601.42 303.62V318.138C1598.16 316.202 1594.9 315.234 1591.64 315.234C1586.44 315.234 1582.21 317.068 1578.95 320.735C1575.8 324.403 1572.79 328.784 1569.94 333.878V380.028H1557.41V303.62H1569.94Z" />
<path d="M1504.76 302.092C1512.6 302.092 1519.12 303.722 1524.32 306.982C1529.51 310.242 1533.39 314.674 1535.93 320.277C1538.58 325.88 1539.91 332.197 1539.91 339.226V346.714H1481.22C1481.83 350.993 1483.31 354.915 1485.66 358.481C1488 362.047 1491.05 364.899 1494.82 367.039C1498.59 369.076 1502.92 370.095 1507.81 370.095C1513.32 370.095 1518.46 368.72 1523.25 365.969C1528.04 363.116 1532.06 360.009 1535.32 356.647L1535.17 370.248C1533.74 371.98 1531.6 373.814 1528.75 375.749C1526 377.583 1522.79 379.111 1519.12 380.334C1515.56 381.658 1511.79 382.32 1507.81 382.32C1500.07 382.32 1493.19 380.487 1487.18 376.819C1481.17 373.151 1476.44 368.312 1472.97 362.301C1469.61 356.189 1467.93 349.516 1467.93 342.282C1467.93 335.049 1469.51 328.376 1472.67 322.264C1475.82 316.151 1480.15 311.261 1485.66 307.593C1491.26 303.926 1497.63 302.092 1504.76 302.092ZM1504.76 314.317C1498.44 314.317 1493.25 316.457 1489.17 320.735C1485.1 324.912 1482.55 330.006 1481.53 336.017H1527.53C1527.02 331.025 1525.59 326.95 1523.25 323.792C1521.01 320.634 1518.26 318.29 1515 316.762C1511.74 315.132 1508.32 314.317 1504.76 314.317Z" />
<path d="M1461.13 303.62L1434.38 380.029H1426.59L1405.65 326.084L1384.72 380.029H1376.92L1350.18 303.62H1365.16L1382.12 357.259L1402.14 303.62H1409.17L1429.19 357.259L1446.15 303.62H1461.13Z" />
<path d="M1303.49 302.092C1311.23 302.092 1318.11 303.926 1324.12 307.593C1330.13 311.261 1334.82 316.151 1338.18 322.264C1341.64 328.376 1343.37 335.049 1343.37 342.282C1343.37 349.516 1341.64 356.189 1338.18 362.301C1334.82 368.312 1330.13 373.151 1324.12 376.819C1318.11 380.487 1311.23 382.32 1303.49 382.32C1295.75 382.32 1288.87 380.487 1282.86 376.819C1276.85 373.151 1272.11 368.312 1268.65 362.301C1265.29 356.189 1263.6 349.516 1263.6 342.282C1263.6 335.049 1265.29 328.376 1268.65 322.264C1272.11 316.151 1276.85 311.261 1282.86 307.593C1288.87 303.926 1295.75 302.092 1303.49 302.092ZM1303.49 314.317C1298.09 314.317 1293.35 315.642 1289.28 318.29C1285.2 320.837 1282.04 324.25 1279.8 328.529C1277.66 332.706 1276.59 337.29 1276.59 342.282C1276.59 347.173 1277.66 351.757 1279.8 356.036C1282.04 360.213 1285.2 363.626 1289.28 366.275C1293.35 368.822 1298.09 370.095 1303.49 370.095C1308.99 370.095 1313.73 368.822 1317.7 366.275C1321.78 363.626 1324.88 360.213 1327.02 356.036C1329.26 351.757 1330.39 347.173 1330.39 342.282C1330.39 337.29 1329.26 332.706 1327.02 328.529C1324.88 324.25 1321.78 320.837 1317.7 318.29C1313.73 315.642 1308.99 314.317 1303.49 314.317Z" />
<path d="M1215.85 302.092C1222.47 302.092 1228.43 303.722 1233.73 306.982C1239.13 310.14 1243.4 314.623 1246.56 320.43C1249.82 326.135 1251.45 332.859 1251.45 340.602C1251.45 348.956 1249.82 356.291 1246.56 362.608C1243.4 368.822 1239.02 373.662 1233.42 377.125C1227.92 380.589 1221.65 382.321 1214.62 382.321C1210.24 382.321 1205.76 381.15 1201.18 378.806C1196.69 376.463 1192.82 373.458 1189.56 369.79V416.705H1177.03V303.62H1189.56V316.61C1192.21 312.534 1195.78 309.121 1200.26 306.371C1204.84 303.518 1210.04 302.092 1215.85 302.092ZM1213.86 314.317C1209.27 314.317 1205.1 315.489 1201.33 317.832C1197.66 320.175 1194.76 323.435 1192.62 327.612C1190.58 331.688 1189.56 336.476 1189.56 341.977L1189.71 356.648C1192.97 360.621 1196.39 363.881 1199.95 366.428C1203.52 368.873 1207.64 370.096 1212.33 370.096C1217.83 370.096 1222.52 368.67 1226.39 365.817C1230.26 362.964 1233.22 359.297 1235.25 354.814C1237.39 350.229 1238.46 345.492 1238.46 340.602C1238.46 335.61 1237.44 331.178 1235.41 327.307C1233.37 323.333 1230.52 320.175 1226.85 317.832C1223.18 315.489 1218.85 314.317 1213.86 314.317Z" />
</g>
</svg>
